<mxfile host="65bd71144e">
    <diagram id="puRboPM44XWlyKMjKKkZ" name="ページ1">
        <mxGraphModel dx="1152" dy="813" grid="1" gridSize="10" guides="1" tooltips="1" connect="1" arrows="1" fold="1" page="1" pageScale="1" pageWidth="1169" pageHeight="827" math="0" shadow="0">
            <root>
                <mxCell id="0"/>
                <mxCell id="1" parent="0"/>
                <mxCell id="32" value="&lt;font color=&quot;#1a1a1a&quot;&gt;ログインページ&lt;/font&gt;" style="whiteSpace=wrap;html=1;labelBackgroundColor=none;fontSize=12;fillColor=#f9f7ed;strokeColor=#36393d;verticalAlign=top;" parent="1" vertex="1">
                    <mxGeometry x="28" y="160" width="120" height="300" as="geometry"/>
                </mxCell>
                <mxCell id="4" value="&lt;font color=&quot;#1a1a1a&quot; style=&quot;font-size: 12px;&quot;&gt;新規ユーザ&lt;br&gt;登録&lt;/font&gt;" style="whiteSpace=wrap;html=1;fillColor=#ffcccc;strokeColor=#36393d;fontSize=11;" parent="1" vertex="1">
                    <mxGeometry x="53" y="372" width="70" height="30" as="geometry"/>
                </mxCell>
                <mxCell id="30" value="&lt;font color=&quot;#1a1a1a&quot;&gt;ログイン&lt;/font&gt;" style="whiteSpace=wrap;html=1;fillColor=#ffcccc;strokeColor=#36393d;" parent="1" vertex="1">
                    <mxGeometry x="53" y="190" width="70" height="30" as="geometry"/>
                </mxCell>
                <mxCell id="103" value="&lt;font color=&quot;#1a1a1a&quot;&gt;新規ユーザ登録画面&lt;/font&gt;" style="whiteSpace=wrap;html=1;labelBackgroundColor=none;fontSize=12;fillColor=#f9f7ed;strokeColor=#36393d;verticalAlign=top;" parent="1" vertex="1">
                    <mxGeometry x="180" y="333.5" width="120" height="121" as="geometry"/>
                </mxCell>
                <mxCell id="104" value="&lt;font color=&quot;#1a1a1a&quot;&gt;ログイン画面&lt;/font&gt;" style="whiteSpace=wrap;html=1;labelBackgroundColor=none;fontSize=12;fillColor=#f9f7ed;strokeColor=#36393d;verticalAlign=top;" parent="1" vertex="1">
                    <mxGeometry x="180" y="160" width="120" height="120" as="geometry"/>
                </mxCell>
                <mxCell id="105" value="&lt;font color=&quot;#1a1a1a&quot; style=&quot;font-size: 12px;&quot;&gt;新規ユーザ&lt;br&gt;登録&lt;/font&gt;" style="whiteSpace=wrap;html=1;fillColor=#ffcccc;strokeColor=#36393d;fontSize=11;" parent="1" vertex="1">
                    <mxGeometry x="205" y="372" width="70" height="30" as="geometry"/>
                </mxCell>
                <mxCell id="106" value="&lt;font color=&quot;#1a1a1a&quot;&gt;編集&lt;/font&gt;" style="whiteSpace=wrap;html=1;fillColor=#ffcccc;strokeColor=#36393d;" parent="1" vertex="1">
                    <mxGeometry x="205" y="190" width="70" height="30" as="geometry"/>
                </mxCell>
                <mxCell id="36" value="" style="edgeStyle=none;orthogonalLoop=1;jettySize=auto;html=1;fontSize=12;fontColor=#1A1A1A;shape=flexArrow;exitX=1;exitY=0.5;exitDx=0;exitDy=0;" parent="1" source="30" target="106" edge="1">
                    <mxGeometry width="100" relative="1" as="geometry">
                        <mxPoint x="120" y="205" as="sourcePoint"/>
                        <mxPoint x="275" y="203.14750000000004" as="targetPoint"/>
                        <Array as="points"/>
                    </mxGeometry>
                </mxCell>
                <mxCell id="55" value="" style="edgeStyle=none;orthogonalLoop=1;jettySize=auto;html=1;fontSize=12;fontColor=#1A1A1A;shape=flexArrow;entryX=0;entryY=0.5;entryDx=0;entryDy=0;exitX=1;exitY=0.5;exitDx=0;exitDy=0;" parent="1" source="4" target="105" edge="1">
                    <mxGeometry width="100" relative="1" as="geometry">
                        <mxPoint x="123" y="363.8296666666667" as="sourcePoint"/>
                        <mxPoint x="238" y="363.5" as="targetPoint"/>
                        <Array as="points"/>
                    </mxGeometry>
                </mxCell>
                <mxCell id="143" value="&lt;font color=&quot;#1a1a1a&quot;&gt;プロジェクトタスク一覧画面&lt;br&gt;&lt;/font&gt;" style="whiteSpace=wrap;html=1;fillColor=#cdeb8b;strokeColor=#36393d;verticalAlign=top;" parent="1" vertex="1">
                    <mxGeometry x="450" y="160" width="180" height="350" as="geometry"/>
                </mxCell>
                <mxCell id="147" value="&lt;span style=&quot;font-family: &amp;quot;Noto Sans JP&amp;quot;, &amp;quot;ヒラギノ角ゴ Pro W3&amp;quot;, &amp;quot;Hiragino Kaku Gothic Pro&amp;quot;, メイリオ, Meiryo, YuGothic, 游ゴシック, &amp;quot;ＭＳ Ｐゴシック&amp;quot;, &amp;quot;MS PGothic&amp;quot;, arial, sans-serif; text-align: left;&quot;&gt;&lt;font style=&quot;font-size: 12px;&quot; color=&quot;#1a1a1a&quot;&gt;登録&lt;/font&gt;&lt;/span&gt;" style="whiteSpace=wrap;html=1;fillColor=#dae8fc;strokeColor=#6c8ebf;" parent="1" vertex="1">
                    <mxGeometry x="495" y="186" width="70" height="30" as="geometry"/>
                </mxCell>
                <mxCell id="148" value="更新" style="whiteSpace=wrap;html=1;fillColor=#dae8fc;strokeColor=#6c8ebf;flipV=1;flipH=1;" parent="1" vertex="1">
                    <mxGeometry x="495" y="240" width="70" height="30" as="geometry"/>
                </mxCell>
                <mxCell id="149" value="&lt;span style=&quot;font-family: &amp;quot;Noto Sans JP&amp;quot;, &amp;quot;ヒラギノ角ゴ Pro W3&amp;quot;, &amp;quot;Hiragino Kaku Gothic Pro&amp;quot;, メイリオ, Meiryo, YuGothic, 游ゴシック, &amp;quot;ＭＳ Ｐゴシック&amp;quot;, &amp;quot;MS PGothic&amp;quot;, arial, sans-serif; text-align: left;&quot;&gt;&lt;font style=&quot;font-size: 12px;&quot; color=&quot;#1a1a1a&quot;&gt;削除&lt;/font&gt;&lt;/span&gt;" style="whiteSpace=wrap;html=1;fillColor=#dae8fc;strokeColor=#6c8ebf;flipV=1;flipH=1;" parent="1" vertex="1">
                    <mxGeometry x="495" y="290" width="70" height="30" as="geometry"/>
                </mxCell>
                <mxCell id="177" style="edgeStyle=orthogonalEdgeStyle;html=1;exitX=0.5;exitY=1;exitDx=0;exitDy=0;shape=flexArrow;" parent="1" source="150" edge="1">
                    <mxGeometry relative="1" as="geometry">
                        <mxPoint x="55" y="460" as="targetPoint"/>
                        <mxPoint x="495" y="500" as="sourcePoint"/>
                        <Array as="points">
                            <mxPoint x="530" y="570"/>
                            <mxPoint x="55" y="570"/>
                        </Array>
                    </mxGeometry>
                </mxCell>
                <mxCell id="150" value="&lt;span style=&quot;font-family: &amp;quot;Noto Sans JP&amp;quot;, &amp;quot;ヒラギノ角ゴ Pro W3&amp;quot;, &amp;quot;Hiragino Kaku Gothic Pro&amp;quot;, メイリオ, Meiryo, YuGothic, 游ゴシック, &amp;quot;ＭＳ Ｐゴシック&amp;quot;, &amp;quot;MS PGothic&amp;quot;, arial, sans-serif; text-align: left;&quot;&gt;&lt;font style=&quot;font-size: 12px;&quot; color=&quot;#1a1a1a&quot;&gt;ログアウト&lt;/font&gt;&lt;/span&gt;" style="whiteSpace=wrap;html=1;fillColor=#dae8fc;strokeColor=#6c8ebf;" parent="1" vertex="1">
                    <mxGeometry x="495" y="470" width="70" height="30" as="geometry"/>
                </mxCell>
                <mxCell id="158" style="edgeStyle=none;html=1;exitX=1;exitY=0.5;exitDx=0;exitDy=0;entryX=-0.012;entryY=0.126;entryDx=0;entryDy=0;entryPerimeter=0;shape=flexArrow;width=19;endSize=6.5;" parent="1" source="106" target="143" edge="1">
                    <mxGeometry relative="1" as="geometry"/>
                </mxCell>
                <mxCell id="159" style="edgeStyle=none;html=1;exitX=1;exitY=0.5;exitDx=0;exitDy=0;entryX=0;entryY=0.153;entryDx=0;entryDy=0;entryPerimeter=0;shape=flexArrow;" parent="1" edge="1">
                    <mxGeometry relative="1" as="geometry">
                        <mxPoint x="275" y="386.5" as="sourcePoint"/>
                        <mxPoint x="450" y="387.5" as="targetPoint"/>
                    </mxGeometry>
                </mxCell>
            </root>
        </mxGraphModel>
    </diagram>
</mxfile>